HIERARCHY
ROOT Hips
{
	OFFSET 0.00 0.00 0.00
	CHANNELS 6 Xposition Yposition Zposition Xrotation Yrotation Zrotation
	JOINT RightUpLeg
	{
		OFFSET -4.47808 0.00000 0.00000
		CHANNELS 3 Xrotation Yrotation Zrotation
		JOINT RightLeg
		{
			OFFSET 0.00000 -16.40577 0.00000
			CHANNELS 3 Xrotation Yrotation Zrotation
			JOINT RightFoot
			{
				OFFSET 0.00000 -14.64414 0.00000
				CHANNELS 3 Xrotation Yrotation Zrotation
				JOINT RightToeBase
				{
					OFFSET 0.00000 -1.50274 5.60831
					CHANNELS 3 Xrotation Yrotation Zrotation
					End Site
					{
						OFFSET 0.00000 0.00000 2.95275
					}
				}
			}
		}
	}
	JOINT LeftUpLeg
	{
		OFFSET 4.47808 0.00000 0.00000
		CHANNELS 3 Xrotation Yrotation Zrotation
		JOINT LeftLeg
		{
			OFFSET 0.00000 -16.40577 0.00000
			CHANNELS 3 Xrotation Yrotation Zrotation
			JOINT LeftFoot
			{
				OFFSET 0.00000 -14.64414 0.00000
				CHANNELS 3 Xrotation Yrotation Zrotation
				JOINT LeftToeBase
				{
					OFFSET 0.00000 -1.50274 5.60831
					CHANNELS 3 Xrotation Yrotation Zrotation
					End Site
					{
						OFFSET 0.00000 0.00000 2.95275
					}
				}
			}
		}
	}
	JOINT Spine
	{
		OFFSET 0.00000 6.06821 0.00000
		CHANNELS 3 Xrotation Yrotation Zrotation
		JOINT RightShoulder
		{
			OFFSET 0.00000 10.01392 0.00000
			CHANNELS 3 Xrotation Yrotation Zrotation
			JOINT RightArm
			{
				OFFSET -7.19022 0.00000 0.00000
				CHANNELS 3 Xrotation Yrotation Zrotation
				JOINT RightForeArm
				{
					OFFSET -10.17747 0.00000 0.00000
					CHANNELS 3 Yrotation Zrotation Xrotation
					JOINT RightHand
					{
						OFFSET -8.39211 0.00000 0.00000
						CHANNELS 3 Xrotation Yrotation Zrotation
						End Site
						{
							OFFSET -3.93700 0.00000 0.00000
						}
						JOINT RightHandThumb1
						{
							OFFSET 0.00000 0.00000 0.00000
							CHANNELS 3 Xrotation Zrotation Yrotation
							End Site
							{
								OFFSET 0.00000 0.00000 3.93700
							}
						}
					}
				}
			}
		}
		JOINT LeftShoulder
		{
			OFFSET 0.00000 10.01392 0.00000
			CHANNELS 3 Xrotation Yrotation Zrotation
			JOINT LeftArm
			{
				OFFSET 7.19022 0.00000 0.00000
				CHANNELS 3 Xrotation Yrotation Zrotation
				JOINT LeftForeArm
				{
					OFFSET 10.17747 0.00000 0.00000
					CHANNELS 3 Yrotation Zrotation Xrotation
					JOINT LeftHand
					{
						OFFSET 8.39211 0.00000 0.00000
						CHANNELS 3 Xrotation Yrotation Zrotation
						End Site
						{
							OFFSET 3.93700 0.00000 0.00000
						}
						JOINT LeftHandThumb1
						{
							OFFSET 0.00000 0.00000 0.00000
							CHANNELS 3 Xrotation Zrotation Yrotation
							End Site
							{
								OFFSET 0.00000 0.00000 3.93700
							}
						}
					}
				}
			}
		}
		JOINT Head
		{
			OFFSET 0.00000 15.77748 0.00000
			CHANNELS 3 Xrotation Yrotation Zrotation
			End Site
			{
				OFFSET 0.00000 4.52755 0.00000
			}
		}
	}
}
MOTION
Frames: 11
Frame Time: 0.008333
 -2.0101 32.8052 -1.6732 9.9074 -2.8619 2.2355 -1.6219 -8.0002 -6.0896 -3.0871 0.0000 -0.0000 -10.2726 -7.1949 4.3088 6.6051 0.0000 -0.0000 -2.4110 9.5953 7.6464 -0.9443 0.0000 0.0000 -7.0137 12.5896 -19.6490 8.9267 0.0000 0.0000 -10.3033 -0.9880 -0.9266 -2.1346 -20.8729 -32.3528 -35.7082 -1.6737 29.5329 7.8228 -0.0000 14.9733 -1.9902 10.4631 10.8328 32.8623 0.0000 -24.3270 -10.1384 21.9705 35.3013 -29.8910 -0.1136 -26.7784 0.5008 0.0000 28.6692 0.3220 1.7126 -10.6504 33.1476 -0.0000 26.2537 -7.9669 1.6939 1.2014
 -2.0166 32.8057 -1.6801 9.9000 -2.8816 2.2176 -1.6329 -7.9651 -6.0617 -3.0688 0.0000 -0.0000 -10.2701 -7.1621 4.2962 6.7274 -0.0000 -0.0000 -2.4293 9.6578 7.6778 -0.9306 -0.0000 0.0000 -7.0237 12.5433 -19.6264 8.9697 0.0000 0.0000 -10.2998 -0.9577 -0.9503 -2.0851 -20.9090 -32.3222 -35.7485 -1.6956 29.5750 7.8190 -0.0000 14.9081 -1.9880 10.5018 10.7826 32.8623 0.0000 -24.3270 -10.1089 21.9893 35.3122 -29.9065 -0.1252 -26.7859 0.4686 0.0000 28.7013 0.3182 1.6939 -10.6398 33.1476 -0.0000 26.2537 -7.8925 1.6565 1.1815
 -2.0230 32.8062 -1.6874 9.8884 -2.8901 2.1969 -1.6425 -7.9477 -6.0324 -3.0396 0.0000 -0.0000 -10.2686 -7.1665 4.2951 6.7143 -0.0000 -0.0000 -2.4517 9.7192 7.7101 -0.9141 0.0000 -0.0000 -7.0250 12.5044 -19.6273 8.9578 0.0000 -0.0000 -10.2892 -0.9380 -0.9715 -2.0404 -20.9346 -32.2887 -35.7507 -1.7010 29.6039 7.8320 -0.0000 14.8848 -1.9817 10.5031 10.7478 32.8623 0.0000 -24.3270 -10.0770 22.0014 35.3111 -29.8820 -0.1600 -26.7840 0.4343 0.0000 28.7098 0.3234 1.7257 -10.6171 33.1476 -0.0000 26.2537 -7.8301 1.6280 1.1773
 -2.0276 32.8067 -1.6947 9.8752 -2.9060 2.1824 -1.6520 -7.9229 -6.0128 -3.0096 0.0000 -0.0000 -10.2761 -7.1742 4.2660 6.5500 -0.0000 0.0000 -2.4629 9.7647 7.7333 -0.9027 0.0000 0.0000 -7.0311 12.4844 -19.6221 9.0187 -0.0000 0.0000 -10.2735 -0.9096 -0.9915 -1.9908 -20.9795 -32.2606 -35.7812 -1.6994 29.6456 7.8355 -0.0000 14.8806 -1.9760 10.5052 10.7154 32.8623 0.0000 -24.3270 -10.0328 22.0282 35.3041 -29.9347 -0.1598 -26.7922 0.3912 0.0000 28.8543 0.3240 1.7361 -10.5719 33.1476 -0.0000 26.2537 -7.7765 1.6091 1.1692
 -2.0322 32.8071 -1.7022 9.8616 -2.9142 2.1619 -1.6731 -7.9844 -5.9837 -2.9757 -0.0000 -0.0000 -10.2758 -7.1141 4.2935 6.5454 -0.0000 0.0000 -2.4882 9.8344 7.7661 -0.8764 0.0000 0.0000 -7.0383 12.4184 -19.6469 9.0054 -0.0000 0.0000 -10.2583 -0.8964 -1.0046 -1.9824 -20.9957 -32.2490 -35.7487 -1.6810 29.6855 7.8435 -0.0000 14.9091 -1.9670 10.4753 10.6971 32.8623 0.0000 -24.3270 -10.0183 22.0423 35.2984 -29.8881 -0.2097 -26.7852 0.3530 0.0000 28.8414 0.3324 1.7807 -10.5761 33.1476 -0.0000 26.2537 -7.7179 1.5962 1.1536
 -2.0362 32.8075 -1.7099 9.8514 -2.9302 2.1490 -1.6852 -7.9892 -5.9649 -2.9612 -0.0000 0.0000 -10.2717 -7.0571 4.2884 6.7138 0.0000 0.0000 -2.5067 9.8600 7.7904 -0.8498 0.0000 -0.0000 -7.0528 12.3994 -19.6385 8.9978 -0.0000 0.0000 -10.2448 -0.8836 -1.0240 -1.9644 -21.0014 -32.2387 -35.7270 -1.6817 29.7255 7.8568 -0.0000 14.9123 -1.9680 10.4737 10.7041 32.8623 0.0000 -24.3270 -10.0222 22.0478 35.3049 -29.8478 -0.2408 -26.7687 0.3312 0.0000 28.7830 0.3317 1.7608 -10.6704 33.1476 -0.0000 26.2537 -7.6677 1.6041 1.1457
 -2.0389 32.8074 -1.7183 9.8417 -2.9404 2.1417 -1.6948 -7.9953 -5.9528 -2.9522 -0.0000 -0.0000 -10.2742 -7.0647 4.2936 6.6048 0.0000 0.0000 -2.5268 9.9117 7.8054 -0.8344 0.0000 -0.0000 -7.0523 12.3532 -19.6363 8.9839 -0.0000 -0.0000 -10.2372 -0.8821 -1.0450 -1.9561 -20.9964 -32.2380 -35.7009 -1.6733 29.7698 7.8685 -0.0000 14.9108 -1.9655 10.4502 10.7138 32.8623 0.0000 -24.3270 -10.0203 22.0550 35.3083 -29.8220 -0.2578 -26.7546 0.3009 0.0000 28.7914 0.3349 1.7728 -10.6989 33.1476 -0.0000 26.2537 -7.6073 1.6649 1.1382
 -2.0424 32.8078 -1.7270 9.8393 -2.9599 2.1300 -1.7105 -7.9787 -5.9365 -2.9457 -0.0000 -0.0000 -10.2588 -7.0464 4.2859 6.6140 -0.0000 0.0000 -2.5558 9.9515 7.8285 -0.8092 -0.0000 -0.0000 -7.0553 12.3338 -19.6633 9.0029 0.0000 -0.0000 -10.2401 -0.8741 -1.0619 -1.9368 -20.9897 -32.2341 -35.6898 -1.6731 29.8129 7.8798 -0.0000 14.9213 -1.9645 10.4396 10.7193 32.8623 0.0000 -24.3270 -10.0004 22.0700 35.3006 -29.8338 -0.2814 -26.7297 0.3004 0.0000 28.7667 0.3344 1.7700 -10.7014 33.1476 -0.0000 26.2537 -7.5400 1.6928 1.1230
 -2.0443 32.8085 -1.7349 9.8287 -2.9662 2.1227 -1.7251 -8.0052 -5.9249 -2.9285 0.0000 -0.0000 -10.2635 -7.0104 4.2670 6.6055 -0.0000 -0.0000 -2.5794 9.9874 7.8459 -0.7798 0.0000 0.0000 -7.0624 12.2877 -19.6639 8.9966 0.0000 0.0000 -10.2350 -0.8759 -1.0845 -1.9124 -20.9908 -32.2205 -35.6782 -1.6503 29.8441 7.8766 -0.0000 14.8890 -1.9613 10.4002 10.7410 32.8623 0.0000 -24.3270 -10.0292 22.0578 35.3180 -29.8149 -0.2847 -26.7222 0.2760 0.0000 28.7618 0.3352 1.7703 -10.7223 33.1476 -0.0000 26.2537 -7.4823 1.7417 1.1404
 -2.0482 32.8093 -1.7448 9.8224 -2.9690 2.1149 -1.7420 -8.0171 -5.9091 -2.9157 -0.0000 -0.0000 -10.2576 -6.9988 4.2723 6.6219 0.0000 -0.0000 -2.6127 9.9784 7.8704 -0.7345 -0.0000 -0.0000 -7.0744 12.2825 -19.7130 9.0571 -0.0000 -0.0000 -10.2321 -0.8664 -1.1205 -1.9212 -20.9738 -32.2095 -35.6315 -1.6536 29.8700 7.8859 -0.0000 14.8791 -1.9641 10.3587 10.7978 32.8623 0.0000 -24.3270 -10.0405 22.0265 35.3450 -29.8353 -0.2500 -26.7120 0.2457 0.0000 28.7580 0.3347 1.7673 -10.7269 33.1476 -0.0000 26.2537 -7.4007 1.7050 1.1594
 -2.0474 32.8094 -1.7512 9.8085 -2.9811 2.1086 -1.7491 -8.0272 -5.9052 -2.9063 -0.0000 -0.0000 -10.2503 -6.9673 4.2761 6.6049 -0.0000 0.0000 -2.6141 10.0058 7.8758 -0.7303 0.0000 0.0000 -7.0791 12.2676 -19.7080 9.0343 0.0000 0.0000 -10.2279 -0.8677 -1.1314 -1.9169 -20.9622 -32.2179 -35.6037 -1.6364 29.8942 7.8839 -0.0000 14.8465 -1.9710 10.3590 10.8344 32.8623 0.0000 -24.3270 -10.0488 22.0211 35.3504 -29.8672 -0.2140 -26.7069 0.2125 0.0000 28.7469 0.3365 1.7828 -10.6892 33.1476 -0.0000 26.2537 -7.3216 1.7092 1.1431
